<svg xmlns="http://www.w3.org/2000/svg" xml:space="preserve" id="_x32_" version="1.1" viewBox="0 0 512 512">
  <style>
    .st0{fill:#000}
  </style>
  <path d="M114.087 148.892h157.906v26.318H114.087zm0 96.498h157.906v26.318H114.087zm0 96.498h96.498v26.318h-96.498zM454.95 86.619c-78.157 10.768-159.83 199.833-196.664 267.692-9.252 17.049 12.264 31.278 21.786 14.958 6.862-11.728 44.291-85.601 44.291-85.601 40.77 1.345 55.806-27.123 39.511-44.805 54.794 1.131 81.952-29.025 66.412-47.324 16.345 5.175 30.498 1.713 51.521-9.749 44.857-24.469 42.766-106.369-26.857-95.171" class="st0"/>
  <path d="M350.998 307.03v136.12c0 4.034-3.29 7.316-7.316 7.324H42.407c-4.027-.008-7.308-3.29-7.316-7.324V68.85c.009-4.036 3.29-7.316 7.316-7.325h301.275c4.027.009 7.316 3.29 7.316 7.325v67.961c11.48-15.463 23.147-29.144 35.09-40.504V68.851c-.018-23.431-18.967-42.398-42.407-42.416H42.407C18.976 26.453.009 45.42 0 68.851v374.3c.009 23.431 18.976 42.398 42.407 42.414h301.275c23.44-.016 42.389-18.984 42.407-42.414V284.704c-8.122 10.7-20.219 18.41-35.091 22.326" class="st0"/>
</svg>
